 <svg  version="1.0" xmlns="http://www.w3.org/2000/svg"  width="3456.000000pt" height="1728.000000pt" viewBox="0 0 3456.000000 1728.000000"  preserveAspectRatio="xMidYMid meet">  <g transform="translate(0.000000,1728.000000) scale(0.100000,-0.100000)" fill="#6d3004" stroke="none"> <path d="M9481 16813 c-29 -6 -49 -24 -73 -69 -24 -46 -23 -64 10 -110 31 -43 101 -71 134 -53 9 5 24 9 33 9 20 0 54 38 55 61 0 8 5 20 11 26 14 14 -10 88 -36 113 -21 19 -92 32 -134 23z"/> <path d="M9794 16661 c-70 -51 -78 -65 -78 -139 0 -55 4 -73 24 -100 49 -66 147 -91 213 -55 43 24 77 54 77 69 0 6 7 17 15 24 21 17 19 83 -3 124 -55 102 -167 137 -248 77z"/> <path d="M9245 16540 c-22 -5 -66 -13 -98 -18 -32 -5 -63 -14 -69 -20 -7 -7 -18 -12 -26 -12 -28 0 -203 -93 -310 -164 -283 -190 -500 -379 -692 -606 -30 -35 -68 -78 -83 -95 -16 -16 -50 -57 -75 -90 -25 -33 -52 -64 -58 -70 -7 -5 -23 -28 -37 -51 -14 -22 -32 -47 -39 -55 -14 -14 -53 -68 -119 -164 -19 -27 -36 -52 -39 -55 -6 -6 -39 -53 -99 -140 -50 -73 -148 -233 -162 -265 -5 -11 -18 -33 -29 -50 -11 -16 -31 -52 -45 -80 -15 -27 -45 -86 -68 -131 -23 -44 -62 -123 -86 -175 -24 -52 -49 -106 -57 -121 -8 -14 -14 -35 -14 -45 0 -10 -5 -24 -11 -30 -6 -6 -14 -26 -19 -44 -9 -38 -27 -88 -47 -136 -7 -17 -13 -46 -13 -65 0 -18 -7 -51 -15 -73 -16 -46 -21 -291 -5 -315 12 -20 18 -3 23 70 4 59 22 136 43 187 8 17 14 38 14 47 0 8 6 30 14 48 8 18 21 49 30 70 9 20 16 41 16 46 0 6 6 23 14 39 8 15 21 44 30 63 52 119 74 167 123 265 75 150 113 221 189 350 79 135 74 126 124 205 23 36 46 74 53 85 7 11 24 36 40 56 15 20 27 39 27 42 0 6 77 121 119 177 14 19 31 42 36 51 16 25 101 132 217 269 118 142 257 283 362 369 74 61 232 177 256 188 8 4 29 17 46 28 34 23 158 84 214 104 52 20 167 32 230 25 114 -13 166 -74 196 -231 10 -53 -36 -232 -87 -336 -73 -149 -178 -272 -355 -414 -39 -32 -143 -103 -150 -103 -2 0 -20 -12 -41 -26 -21 -14 -47 -30 -58 -35 -11 -5 -28 -13 -37 -19 -35 -20 -54 -29 -98 -50 -25 -12 -52 -26 -60 -31 -8 -5 -22 -12 -30 -15 -8 -3 -43 -19 -77 -35 -35 -16 -68 -29 -74 -29 -6 0 -23 -6 -37 -13 -15 -8 -42 -21 -60 -30 -19 -9 -40 -17 -49 -17 -8 0 -27 -6 -41 -14 -52 -26 -103 -46 -120 -46 -10 0 -27 -7 -38 -15 -10 -8 -27 -15 -37 -15 -11 0 -31 -6 -45 -14 -15 -8 -39 -17 -54 -21 -16 -3 -28 -10 -28 -15 0 -15 76 -12 117 5 19 8 52 15 72 15 20 1 47 7 61 15 14 8 39 14 55 15 17 0 43 7 59 15 15 8 40 15 55 15 14 1 37 7 51 15 14 8 34 14 45 15 11 0 33 7 49 15 15 8 34 15 42 15 14 0 66 20 117 46 16 8 33 14 39 14 13 0 321 153 363 180 17 11 37 23 45 27 26 12 102 65 205 142 121 90 336 298 414 401 68 90 151 255 151 301 0 11 7 43 16 70 18 54 14 153 -5 172 -6 6 -11 21 -11 34 0 58 -77 156 -171 216 -80 51 -217 82 -294 67z"/> <path d="M9847 16235 c-33 -32 -37 -42 -37 -85 0 -30 6 -54 15 -64 8 -8 15 -19 15 -25 0 -6 8 -11 18 -11 9 0 26 -7 36 -15 11 -8 29 -15 41 -15 12 0 30 7 41 15 10 8 25 15 32 15 30 0 51 44 52 102 0 54 -2 58 -39 87 -32 25 -48 31 -88 31 -44 0 -55 -5 -86 -35z"/> <path d="M5790 16238 c-19 -5 -60 -13 -92 -18 -31 -4 -62 -11 -69 -15 -7 -5 -29 -12 -48 -16 -50 -10 -109 -33 -123 -47 -7 -7 -20 -12 -29 -12 -9 0 -22 -7 -29 -15 -7 -8 -17 -15 -22 -15 -28 0 -163 -126 -214 -200 -45 -65 -92 -171 -105 -235 -5 -22 -14 -63 -20 -92 -10 -40 -10 -64 0 -110 6 -32 16 -81 20 -109 5 -28 13 -59 18 -70 6 -10 18 -37 29 -59 38 -82 148 -205 182 -205 6 0 12 -4 14 -8 6 -14 88 -52 113 -52 29 0 33 18 8 27 -63 23 -181 143 -225 228 -48 92 -53 115 -52 255 1 103 5 142 18 165 9 17 16 37 16 45 0 19 59 136 85 170 124 157 354 282 570 311 186 24 286 28 423 14 75 -8 205 -15 287 -15 83 -1 173 -5 200 -10 28 -5 159 -12 293 -16 133 -4 245 -10 247 -15 3 -4 -28 -35 -68 -70 -198 -174 -418 -424 -563 -639 -17 -25 -52 -75 -77 -113 -26 -37 -47 -70 -47 -73 0 -3 -13 -23 -30 -44 -16 -21 -30 -41 -30 -44 0 -3 -13 -25 -30 -48 -16 -22 -30 -47 -30 -54 0 -7 -4 -14 -8 -16 -5 -1 -46 -66 -92 -143 -119 -199 -105 -184 -175 -185 -59 0 -131 -18 -188 -46 -16 -8 -33 -14 -39 -14 -17 0 -125 -88 -157 -129 -17 -21 -31 -46 -31 -54 0 -19 16 -31 24 -18 6 8 27 19 121 61 50 23 138 38 163 29 21 -8 32 -39 13 -39 -7 0 -76 -97 -107 -151 -72 -125 -406 -483 -549 -588 -38 -28 -75 -54 -81 -58 -29 -22 -175 -95 -224 -113 -96 -34 -262 -48 -360 -30 -115 22 -199 101 -200 189 0 41 4 47 75 116 l75 74 0 76 c0 75 0 76 -39 113 -38 36 -98 62 -143 62 -38 0 -106 -28 -138 -56 -50 -45 -70 -96 -70 -175 0 -70 7 -94 53 -188 38 -76 204 -230 250 -231 7 0 21 -7 31 -15 11 -8 27 -15 36 -15 9 0 32 -8 51 -17 49 -25 375 -25 433 0 21 9 47 17 58 17 11 0 32 6 46 13 15 8 61 31 102 51 78 39 98 50 175 103 65 44 120 89 185 149 30 28 68 62 84 75 56 47 266 297 266 317 0 6 4 12 8 14 11 4 82 123 82 137 0 6 4 11 8 11 4 0 20 27 35 59 16 34 36 62 47 66 25 8 90 -4 115 -21 11 -8 29 -14 40 -14 11 0 29 -7 39 -15 11 -8 32 -15 46 -15 14 0 31 -5 37 -11 41 -41 375 -41 415 -1 7 7 18 12 25 12 52 0 256 210 230 237 -3 3 -29 -9 -57 -26 -28 -17 -53 -31 -56 -31 -3 0 -20 -6 -37 -14 -40 -18 -138 -36 -191 -36 -65 0 -188 30 -271 65 -16 7 -39 15 -50 18 -11 3 -33 10 -50 16 -16 6 -42 13 -57 16 -38 7 -37 50 2 108 17 25 30 50 30 56 0 6 4 11 9 11 5 0 13 9 16 21 4 11 19 40 33 62 15 23 32 51 39 62 16 27 94 150 116 183 9 15 20 35 23 45 4 9 10 17 14 17 5 0 12 9 15 21 4 11 25 48 48 83 59 88 66 99 74 116 4 8 11 20 16 25 4 6 31 46 59 90 28 44 54 82 57 85 3 3 18 23 33 45 15 22 46 60 68 85 23 25 57 65 76 90 82 107 330 332 388 354 15 5 17 9 8 18 -9 9 -27 4 -75 -20 l-62 -32 -185 0 c-102 0 -224 5 -270 11 -47 6 -157 14 -245 19 -88 5 -182 13 -210 19 -64 13 -649 12 -695 -1z"/> <path d="M7715 14710 c-17 -7 -14 -9 13 -9 20 -1 31 3 27 9 -7 12 -13 12 -40 0z"/> <path d="M12715 13570 c-25 -6 -26 -8 -7 -9 56 -3 62 -14 62 -122 0 -76 3 -100 13 -97 8 3 14 38 17 109 l5 104 30 5 c30 6 29 6 -10 13 -47 8 -69 7 -110 -3z"/> <path d="M12920 13460 c0 -100 3 -120 15 -120 12 0 15 15 15 73 0 50 5 80 16 95 23 33 11 72 -21 72 l-25 0 0 -120z"/> <path d="M13107 13573 c-12 -12 -7 -50 8 -63 11 -9 15 -33 15 -91 0 -64 3 -79 15 -79 13 0 15 20 15 120 0 119 0 120 -23 120 -13 0 -27 -3 -30 -7z"/> <path d="M13077 13494 c-10 -11 -8 -52 3 -59 13 -8 25 44 13 56 -5 5 -12 6 -16 3z"/> <path d="M12980 13468 c0 -12 4 -30 10 -38 8 -12 10 -12 15 2 9 23 3 50 -12 56 -8 2 -13 -5 -13 -20z"/> <path d="M13023 13403 c-19 -7 -16 -53 3 -60 19 -7 46 23 42 47 -3 16 -25 22 -45 13z"/> <path d="M517 13274 c-4 -4 -7 -367 -7 -806 l0 -798 6075 0 6075 0 0 800 0 800 -6054 0 c-3330 0 -6061 2 -6068 5 -8 3 -17 2 -21 -1z m4421 -146 c7 -7 12 -19 12 -27 0 -9 21 -59 46 -111 59 -121 101 -211 108 -230 3 -8 10 -22 15 -30 9 -14 62 -128 75 -160 3 -8 10 -22 15 -30 9 -15 35 -73 45 -100 3 -8 10 -22 15 -30 5 -8 24 -46 41 -85 17 -38 36 -77 41 -85 5 -8 12 -22 15 -30 11 -29 37 -85 46 -100 4 -8 11 -22 14 -30 3 -8 19 -42 35 -76 28 -57 33 -61 87 -81 53 -19 57 -22 60 -55 2 -27 -1 -36 -15 -40 -39 -9 -525 0 -534 9 -6 6 -9 23 -7 39 3 26 8 30 45 35 23 3 48 11 57 18 24 20 20 81 -9 132 -14 24 -27 51 -31 59 -10 25 -31 73 -45 103 l-12 27 -231 0 -231 0 -17 -35 c-10 -19 -24 -51 -32 -70 -9 -20 -22 -50 -30 -68 -7 -17 -20 -52 -27 -76 -12 -40 -11 -44 6 -57 11 -8 38 -20 60 -26 54 -15 67 -27 63 -56 -2 -18 -11 -27 -28 -31 -14 -4 -193 -6 -398 -6 l-374 0 -41 46 c-23 25 -55 63 -72 84 -16 22 -39 49 -50 61 -28 31 -54 61 -100 118 -22 28 -53 64 -68 80 -16 17 -50 58 -75 91 -62 80 -81 95 -117 92 l-30 -2 2 -208 c1 -154 4 -212 14 -223 16 -19 48 -33 114 -48 44 -10 50 -15 53 -40 2 -16 -1 -33 -7 -39 -6 -6 -117 -10 -302 -11 -257 -1 -295 1 -313 15 -18 14 -19 20 -8 43 7 15 20 26 31 26 11 0 44 9 74 21 55 21 55 21 72 83 14 53 16 115 13 491 -4 460 -8 495 -53 495 -11 1 -31 7 -45 15 -14 8 -37 14 -52 15 -50 0 -63 74 -15 85 38 10 496 10 632 1 72 -5 148 -15 170 -22 22 -8 47 -14 55 -14 49 0 147 -74 193 -145 68 -104 81 -193 42 -275 -42 -89 -89 -138 -172 -178 -27 -13 -61 -30 -76 -38 -16 -8 -35 -14 -43 -14 -8 0 -14 -3 -14 -7 0 -7 149 -185 273 -327 29 -32 53 -62 55 -67 6 -15 105 -84 142 -98 81 -32 166 -4 208 68 30 51 130 258 146 301 3 8 10 22 14 30 5 8 16 31 24 50 9 19 30 67 48 105 18 39 39 86 48 105 8 19 19 42 24 50 4 8 11 22 14 30 7 20 25 60 64 145 39 85 57 125 64 145 3 8 10 22 14 30 22 40 42 83 42 91 0 6 8 21 18 34 13 19 26 24 58 25 22 0 45 -5 52 -12z m2601 -17 c12 -16 21 -34 21 -39 0 -6 8 -25 17 -44 9 -18 22 -45 30 -60 7 -14 13 -33 13 -41 0 -8 7 -20 15 -27 8 -7 15 -23 15 -35 0 -12 7 -28 15 -35 8 -7 15 -18 15 -25 0 -8 6 -26 14 -42 42 -82 76 -160 76 -174 0 -9 7 -22 15 -29 8 -7 15 -18 15 -25 0 -8 6 -26 14 -42 15 -30 41 -89 50 -113 3 -8 10 -22 14 -30 5 -8 16 -32 26 -52 32 -75 47 -108 61 -140 30 -69 86 -184 98 -198 7 -9 32 -24 57 -35 71 -30 84 -48 62 -83 -11 -16 -507 -21 -523 -5 -6 6 -9 23 -7 39 2 23 9 30 36 35 18 4 42 15 53 25 17 16 20 26 14 64 -4 25 -12 52 -19 60 -21 26 -68 123 -75 155 l-7 30 -228 0 -227 0 -14 -25 c-7 -14 -21 -45 -30 -70 -9 -25 -23 -57 -31 -72 -8 -14 -14 -33 -14 -43 0 -9 -6 -28 -14 -44 -8 -15 -11 -32 -8 -38 4 -6 35 -20 69 -33 65 -23 81 -45 58 -77 -12 -16 -33 -18 -197 -18 -201 -1 -224 1 -231 19 -13 32 6 64 46 82 50 23 71 42 98 92 11 20 24 44 29 52 5 8 11 22 14 30 3 8 10 22 14 30 5 8 16 32 26 53 42 97 50 114 63 139 7 14 13 33 13 41 0 8 7 20 15 27 8 7 15 19 15 26 0 8 14 44 31 81 49 108 61 136 76 170 7 18 21 50 30 70 9 21 22 52 29 68 7 17 26 59 43 95 17 36 31 70 31 75 0 5 13 37 29 70 16 33 31 68 35 78 4 13 16 17 50 17 38 0 48 -4 65 -29z m4358 -1 c6 -14 14 -32 17 -40 3 -8 10 -22 14 -30 9 -14 23 -46 56 -122 8 -18 28 -63 45 -100 17 -37 31 -74 31 -82 0 -7 7 -19 15 -26 8 -7 15 -18 15 -25 0 -8 6 -26 14 -42 8 -15 21 -44 29 -63 9 -19 30 -66 47 -105 17 -38 38 -85 46 -102 8 -18 21 -50 30 -70 10 -21 21 -45 26 -53 4 -8 11 -22 14 -30 3 -8 12 -30 20 -47 8 -18 20 -48 28 -65 41 -92 58 -125 74 -143 16 -20 65 -47 105 -59 19 -6 24 -60 7 -71 -9 -5 -422 -10 -503 -6 -15 1 -18 8 -15 38 3 34 6 38 39 46 21 5 47 19 58 31 21 23 21 25 5 62 -9 22 -20 46 -25 54 -4 8 -18 35 -29 60 -12 25 -28 57 -36 72 -8 14 -14 33 -14 42 0 14 -26 16 -230 16 -189 0 -230 -2 -230 -14 0 -7 -7 -19 -15 -26 -8 -7 -15 -21 -15 -30 0 -10 -6 -31 -14 -47 -34 -69 -45 -101 -51 -141 -7 -42 -7 -42 37 -62 23 -11 50 -20 59 -20 28 0 41 -61 17 -76 -9 -6 -321 -9 -415 -5 -8 1 -13 15 -13 36 0 31 4 37 49 60 27 13 58 35 68 49 26 33 175 339 217 446 3 8 10 22 14 30 5 8 16 32 26 53 31 71 49 112 62 145 8 17 21 48 29 67 9 19 23 52 32 72 9 21 22 50 30 65 7 14 13 33 13 41 0 8 7 20 15 27 8 7 15 23 15 35 0 12 7 28 15 35 8 7 15 18 15 25 0 8 6 26 14 42 8 15 19 41 25 56 10 26 15 28 58 25 39 -2 50 -7 60 -28z m-10666 0 c12 -7 19 -21 19 -40 0 -24 -5 -31 -27 -36 -46 -10 -117 -37 -130 -48 -12 -12 -16 -100 -14 -323 l1 -143 275 0 275 0 0 205 c0 165 -3 211 -16 237 -17 37 -69 66 -124 70 -32 3 -35 6 -38 37 -2 20 2 37 10 42 7 5 141 9 298 9 157 0 291 -4 298 -9 8 -5 12 -22 10 -42 -3 -31 -6 -35 -43 -40 -77 -13 -101 -28 -120 -80 -15 -43 -17 -96 -16 -504 1 -525 -5 -490 96 -519 33 -10 66 -19 73 -21 20 -7 15 -72 -5 -77 -14 -3 -540 -2 -590 1 -17 1 -17 71 0 75 167 43 167 44 167 299 l0 196 -267 3 c-148 2 -272 0 -277 -4 -5 -4 -9 -102 -10 -218 -1 -198 0 -213 18 -226 21 -15 85 -39 129 -48 22 -5 27 -12 27 -36 0 -16 -5 -32 -11 -36 -16 -10 -559 -12 -586 -2 -39 13 -27 78 14 78 13 0 46 9 73 21 39 17 49 26 54 51 10 52 7 964 -4 992 -5 14 -17 26 -27 26 -10 0 -27 7 -37 15 -11 8 -34 15 -52 15 -32 0 -44 13 -44 50 0 11 8 24 18 29 23 14 557 15 583 1z m1523 -6 c30 -30 11 -68 -39 -77 -69 -12 -102 -31 -114 -62 -7 -22 -11 -176 -11 -494 0 -530 -2 -516 76 -544 27 -9 57 -17 66 -17 22 0 41 -35 33 -59 -3 -11 -16 -21 -28 -23 -12 -2 -145 -4 -295 -3 -251 0 -275 2 -287 18 -14 20 -9 57 9 62 90 23 128 39 142 60 14 21 16 84 15 508 0 266 -3 490 -6 498 -9 23 -72 59 -104 59 -49 0 -61 9 -61 45 0 24 5 35 18 38 9 3 142 5 294 6 239 1 279 -1 292 -15z m3691 -9 c102 -36 161 -69 210 -119 81 -82 95 -118 95 -239 0 -75 -4 -108 -15 -123 -8 -10 -15 -27 -15 -37 0 -9 -28 -45 -63 -80 -58 -57 -83 -74 -169 -111 -44 -19 -230 -39 -320 -34 l-73 3 -3 -173 c-2 -144 0 -179 14 -207 9 -19 24 -35 33 -35 9 -1 41 -9 71 -20 46 -16 56 -23 58 -45 2 -15 -1 -32 -7 -38 -12 -12 -534 -17 -568 -5 -26 8 -31 44 -10 70 6 9 35 21 64 28 93 21 88 -8 91 484 1 237 -1 464 -5 505 l-8 75 -50 11 c-68 15 -94 31 -101 62 -14 54 -4 56 376 50 293 -4 353 -8 395 -22z m2170 -10 c14 -16 46 -57 72 -90 26 -33 50 -62 54 -65 6 -5 50 -56 124 -145 22 -27 47 -55 56 -64 8 -9 39 -45 68 -80 29 -35 58 -70 64 -76 7 -7 30 -34 52 -61 22 -26 56 -67 75 -89 19 -23 52 -63 74 -88 21 -26 42 -47 47 -47 12 0 11 503 -2 560 -5 25 -12 64 -16 88 -6 46 -39 82 -75 82 -10 0 -32 7 -48 15 -22 12 -30 23 -30 43 0 50 8 52 235 52 223 0 250 -3 260 -27 6 -17 -19 -62 -38 -67 -76 -21 -104 -33 -117 -51 -13 -17 -16 -105 -20 -595 l-5 -575 -42 -3 c-40 -3 -42 -2 -100 70 -32 40 -61 75 -64 78 -7 6 -66 74 -124 144 -22 27 -50 59 -62 73 -13 13 -49 56 -80 96 -32 40 -61 74 -64 77 -6 5 -51 58 -124 145 -22 27 -45 53 -50 59 -6 6 -39 46 -75 90 -36 43 -75 90 -87 105 l-22 26 0 -390 c0 -354 1 -392 17 -410 20 -24 85 -53 127 -57 25 -3 31 -8 33 -32 2 -16 -1 -33 -7 -39 -13 -13 -432 -17 -468 -5 -57 19 -6 92 72 105 42 7 46 12 63 78 14 54 30 861 18 909 -11 43 -75 90 -146 106 -19 4 -26 13 -28 35 -6 51 13 56 196 53 l162 -3 25 -30z m1439 25 c14 -5 26 -15 26 -21 0 -6 15 -28 33 -48 17 -21 43 -51 56 -67 13 -16 40 -47 60 -70 20 -22 54 -62 76 -89 22 -27 56 -67 75 -90 19 -23 51 -62 72 -86 213 -256 301 -359 307 -359 13 0 13 407 1 554 -11 120 -14 133 -36 154 -14 12 -36 22 -50 22 -42 0 -74 28 -74 65 0 21 6 35 16 39 9 3 111 6 228 6 239 0 259 -5 241 -57 -9 -23 -22 -32 -72 -48 -103 -34 -93 30 -93 -619 0 -432 -3 -575 -12 -584 -7 -7 -26 -12 -44 -12 -28 0 -41 10 -94 73 -34 39 -85 98 -112 129 -28 32 -66 79 -86 105 -20 27 -39 50 -43 53 -7 5 -60 67 -123 142 -21 26 -52 62 -68 80 -17 18 -46 53 -66 78 -20 25 -43 52 -52 61 -8 9 -40 47 -70 84 -30 38 -72 87 -92 109 l-38 41 0 -391 c0 -360 1 -392 18 -406 27 -23 87 -48 116 -48 44 0 62 -78 18 -81 -99 -5 -441 -3 -454 3 -11 6 -18 20 -18 39 0 26 6 33 43 49 23 11 49 20 58 20 57 1 73 141 74 630 0 353 0 355 -23 387 -24 34 -68 61 -117 72 -25 6 -31 12 -33 40 -2 20 2 37 10 42 18 12 311 11 342 -1z"/> <path d="M3280 12984 c-11 -13 -15 -69 -18 -246 l-4 -229 98 3 c95 4 128 12 202 47 97 46 145 219 87 310 -53 85 -130 123 -261 128 -76 4 -93 2 -104 -13z"/> <path d="M4804 12713 c-8 -24 -63 -144 -75 -163 -5 -8 -12 -22 -15 -30 -3 -8 -19 -43 -36 -77 -16 -34 -27 -66 -24 -71 3 -5 81 -8 173 -7 l168 2 -3 29 c-2 16 -10 36 -18 45 -8 8 -14 23 -14 31 0 9 -7 21 -15 28 -8 7 -15 20 -15 30 0 10 -7 23 -15 30 -8 7 -15 21 -15 31 0 10 -4 21 -10 24 -5 3 -22 31 -36 61 -26 56 -41 66 -50 37z"/> <path d="M7410 12738 c0 -9 -6 -29 -14 -45 -8 -15 -22 -46 -32 -68 -9 -22 -21 -47 -26 -55 -4 -8 -11 -22 -14 -30 -7 -20 -33 -78 -51 -117 -26 -54 -22 -56 153 -58 87 -1 162 0 166 2 3 1 -8 31 -24 65 -17 35 -37 79 -45 98 -9 19 -22 47 -29 62 -8 14 -14 33 -14 41 0 8 -7 20 -15 27 -8 7 -15 20 -15 30 0 24 -39 72 -40 48z"/> <path d="M11764 12733 c-6 -19 -21 -55 -49 -118 -10 -22 -24 -53 -31 -70 -7 -16 -27 -61 -44 -98 -17 -37 -28 -72 -26 -76 7 -10 325 -10 331 0 3 4 -1 20 -9 36 -8 15 -22 46 -31 68 -10 22 -24 53 -31 68 -8 16 -14 36 -14 46 0 9 -5 22 -12 29 -12 12 -35 69 -45 110 -6 26 -31 29 -39 5z"/> <path d="M6100 12975 c-6 -17 -9 -120 -8 -263 l3 -236 99 3 c168 5 249 61 274 188 10 49 10 77 0 130 -25 141 -94 193 -265 200 l-93 4 -10 -26z"/> <path d="M505 11527 c-3 -6 -4 -161 -3 -342 l3 -330 6083 -3 c4053 -1 6082 1 6082 8 0 5 0 156 0 335 0 179 0 330 0 335 0 16 -12159 14 -12165 -3z m5864 -60 l45 -2 14 -63 c7 -35 11 -70 8 -79 -6 -14 -10 -13 -31 7 -14 13 -25 29 -25 35 0 21 -47 56 -82 62 -49 7 -83 -25 -74 -71 6 -28 58 -85 79 -86 14 0 97 -67 120 -96 16 -20 21 -41 21 -81 0 -46 -4 -57 -33 -87 -43 -44 -110 -62 -171 -46 -23 6 -55 8 -70 5 -28 -6 -30 -4 -44 46 -31 104 -12 144 33 71 59 -96 175 -112 197 -28 10 41 -13 74 -85 121 -119 79 -150 124 -135 199 6 35 27 63 64 89 19 14 36 17 75 12 28 -3 70 -7 94 -8z m1044 -3 c64 -22 107 -74 107 -131 0 -88 -62 -142 -175 -152 l-60 -6 -3 -60 c-4 -78 3 -104 34 -115 47 -18 13 -30 -87 -30 -81 0 -99 3 -99 15 0 8 6 15 14 15 8 0 22 10 30 22 13 18 16 55 16 198 0 96 -3 185 -6 198 -4 12 -17 25 -30 28 -13 3 -24 12 -24 20 0 21 220 19 283 -2z m612 6 c3 -6 -5 -14 -19 -20 -14 -5 -26 -16 -26 -24 0 -13 44 -122 89 -221 10 -22 22 -49 25 -59 9 -27 18 -14 55 84 18 47 39 99 47 117 21 46 18 90 -6 103 -35 19 -12 30 61 30 52 0 69 -3 69 -14 0 -8 -7 -16 -15 -20 -14 -5 -35 -45 -79 -148 -9 -20 -16 -40 -16 -46 0 -5 -7 -23 -15 -38 -8 -16 -15 -37 -15 -46 0 -9 -4 -19 -10 -23 -5 -3 -14 -20 -19 -38 -41 -134 -70 -169 -91 -109 -13 34 -21 53 -53 122 -14 30 -37 84 -52 120 -54 129 -86 190 -105 202 -11 7 -20 18 -20 25 0 16 185 18 195 3z m1031 2 c17 -11 28 -108 14 -117 -6 -4 -18 1 -25 11 -7 11 -20 27 -27 37 -18 24 -97 35 -109 16 -5 -8 -9 -95 -9 -194 0 -147 3 -185 16 -203 8 -12 22 -22 30 -22 8 0 14 -7 14 -15 0 -12 -18 -15 -99 -15 -105 0 -130 10 -84 32 l28 13 3 201 c3 231 3 232 -68 211 -34 -10 -46 -19 -50 -37 -3 -14 -14 -26 -23 -28 -14 -3 -17 5 -17 51 0 29 3 57 7 60 9 9 385 9 399 -1z m1414 -7 c0 -8 -7 -15 -15 -15 -28 0 -34 -39 -37 -224 -2 -201 -3 -198 50 -212 13 -4 50 -1 84 6 44 10 67 21 89 44 16 17 29 34 29 39 0 4 7 7 15 7 20 0 19 -25 -4 -85 l-19 -50 -196 -3 c-170 -2 -196 0 -196 13 0 8 7 15 15 15 34 0 45 53 45 225 0 172 -11 225 -45 225 -8 0 -15 7 -15 15 0 12 18 15 100 15 82 0 100 -3 100 -15z m918 -52 c3 -70 -15 -87 -35 -33 -18 48 -102 69 -123 31 -6 -11 -10 -90 -10 -186 0 -172 8 -215 45 -229 38 -14 -3 -26 -91 -26 -77 0 -94 3 -94 15 0 8 7 15 15 15 30 0 39 43 42 218 2 106 -1 181 -7 193 -22 40 -115 16 -125 -32 -4 -16 -13 -29 -21 -29 -10 0 -14 15 -14 58 0 32 3 62 7 66 4 3 97 5 207 4 l201 -3 3 -62z m603 51 c114 -34 179 -121 179 -239 0 -81 -27 -144 -83 -188 -69 -55 -115 -67 -263 -67 -72 0 -134 3 -137 6 -3 4 7 19 23 34 l30 28 0 185 0 185 -30 30 c-16 16 -26 32 -23 36 14 14 250 6 304 -10z m-11081 -4 c0 -5 -11 -17 -25 -26 -25 -16 -25 -16 -25 -179 0 -218 -19 -273 -101 -295 -56 -15 -109 8 -109 47 0 55 39 70 72 28 11 -14 26 -25 34 -25 13 0 15 28 12 200 -3 194 -4 200 -25 215 -13 9 -23 23 -23 31 0 11 19 14 95 14 55 0 95 -4 95 -10z m694 -6 c3 -9 6 -33 6 -55 0 -45 -20 -53 -38 -14 -14 30 -38 37 -127 33 l-70 -3 -3 -82 c-3 -76 -1 -82 19 -88 37 -12 112 5 141 32 14 14 30 23 35 20 12 -8 9 -140 -4 -144 -5 -2 -21 8 -34 21 -21 22 -32 26 -91 26 l-68 0 0 -94 c0 -103 2 -106 63 -106 72 0 109 13 150 51 47 45 57 48 57 15 0 -42 -28 -95 -54 -102 -35 -8 -353 -1 -363 9 -4 5 1 15 12 22 46 32 45 29 45 220 0 185 0 185 -25 207 -51 44 -39 48 159 48 158 0 185 -2 190 -16z m456 11 c0 -3 -7 -17 -17 -31 -15 -23 -15 -28 -1 -57 8 -18 19 -47 22 -64 4 -18 12 -35 17 -38 5 -4 9 -14 9 -23 0 -23 33 -102 43 -102 4 0 10 8 13 18 3 9 10 26 15 37 33 75 37 104 21 151 -8 25 -26 57 -39 70 -38 38 -30 44 63 44 85 0 86 0 79 -22 -14 -40 -9 -92 14 -148 12 -30 27 -69 32 -86 5 -17 18 -39 28 -48 19 -17 20 -17 27 21 3 21 10 43 14 48 5 6 11 27 15 48 4 20 11 39 15 42 18 11 21 83 5 114 l-16 31 66 0 c71 0 83 -12 46 -47 -11 -10 -40 -81 -66 -158 -26 -77 -53 -154 -61 -172 -8 -17 -14 -38 -14 -47 0 -24 -32 -86 -45 -86 -10 0 -45 65 -45 84 0 5 -6 22 -14 39 -7 18 -21 55 -31 82 -10 28 -21 54 -25 58 -4 5 -17 -20 -29 -55 -72 -200 -87 -229 -106 -198 -8 13 -54 137 -67 180 -5 19 -14 40 -18 45 -4 6 -10 21 -13 35 -15 68 -64 182 -83 193 -8 4 -14 17 -14 27 0 18 7 20 80 20 44 0 80 -2 80 -5z m1108 -52 c2 -43 0 -53 -12 -53 -9 0 -16 6 -16 13 0 8 -8 22 -19 31 -15 14 -35 16 -102 14 l-84 -3 -3 -82 c-3 -81 -2 -83 23 -89 44 -11 117 6 142 33 13 13 28 21 33 18 11 -7 14 -138 3 -149 -4 -3 -21 7 -38 24 -30 29 -36 31 -96 28 l-64 -3 0 -90 c0 -87 1 -90 26 -99 14 -5 52 -5 85 -1 50 6 64 13 97 46 22 21 43 39 48 39 14 0 10 -58 -6 -90 -9 -16 -26 -32 -39 -36 -43 -11 -344 0 -357 13 -10 10 -7 14 13 22 14 5 28 17 32 26 3 9 6 99 6 200 l0 183 -25 16 c-14 9 -25 23 -25 31 0 13 26 15 188 13 l187 -3 3 -52z m532 43 c0 -7 -11 -21 -25 -30 l-25 -16 0 -188 c0 -103 4 -192 8 -198 12 -18 58 -25 118 -18 48 6 63 13 96 46 21 21 43 38 48 38 24 0 -2 -105 -30 -120 -20 -11 -298 -14 -349 -4 -36 7 -42 31 -8 36 22 3 22 4 25 204 l2 200 -25 24 c-14 13 -25 27 -25 32 0 4 43 8 95 8 74 0 95 -3 95 -14z m720 6 c0 -5 -11 -19 -25 -32 -25 -23 -25 -24 -25 -217 0 -222 -6 -209 95 -207 69 1 121 23 137 60 16 35 44 27 40 -11 -4 -49 -23 -85 -47 -91 -12 -3 -97 -4 -188 -2 -175 3 -216 13 -160 40 l28 13 3 197 2 197 -25 17 c-14 9 -25 23 -25 30 0 11 21 14 95 14 52 0 95 -4 95 -8z m824 -8 c3 -9 6 -31 6 -50 0 -41 -20 -45 -44 -9 -16 24 -22 25 -105 25 -49 0 -91 -4 -93 -10 -1 -5 -2 -43 0 -84 l4 -74 31 -5 c18 -3 52 -2 77 1 36 6 47 13 58 35 7 15 17 25 23 22 11 -7 12 -165 1 -165 -5 0 -18 14 -30 30 -21 28 -26 30 -92 30 l-70 0 0 -95 0 -94 35 -7 c72 -13 173 16 195 56 6 11 19 20 29 20 18 0 18 -3 6 -51 -8 -28 -17 -54 -20 -58 -13 -12 -373 -7 -386 6 -10 10 -6 14 14 22 l27 11 0 203 c0 191 -1 205 -20 222 -11 10 -20 22 -20 27 0 4 83 8 184 8 158 0 185 -2 190 -16z m544 5 c112 -27 156 -142 83 -215 -14 -15 -37 -30 -50 -35 -16 -7 -21 -14 -17 -26 14 -35 132 -173 154 -179 33 -9 27 -32 -12 -40 -68 -12 -87 0 -166 106 -105 139 -123 142 -118 19 3 -70 4 -74 31 -87 20 -10 26 -17 19 -24 -26 -26 -192 -20 -192 7 0 7 10 15 23 17 22 3 22 4 25 204 l2 200 -25 24 c-14 13 -25 27 -25 32 0 12 214 10 268 -3z m3736 -415 c30 -29 16 -74 -23 -74 -48 0 -66 37 -34 72 20 22 37 23 57 2z m3068 -1 c35 -31 16 -73 -33 -73 -39 0 -53 45 -23 74 20 20 33 20 56 -1z"/> <path d="M7288 11424 c-11 -10 -10 -176 1 -193 13 -21 95 4 116 35 20 31 19 103 -3 131 -17 23 -99 43 -114 27z"/> <path d="M11837 11415 c-4 -9 -7 -99 -7 -200 0 -218 -2 -215 91 -191 103 26 149 87 149 196 0 120 -61 195 -168 206 -50 6 -60 4 -65 -11z"/> <path d="M5667 11413 c-10 -10 -8 -156 2 -172 15 -23 96 -5 121 26 48 62 2 153 -78 153 -21 0 -42 -3 -45 -7z"/> </g> </svg> 